<svg width="80" height="80" viewBox="0 0 48 48" fill="none" xmlns="http://www.w3.org/2000/svg">
  <g stroke="rgba(255,255,255,0.4)" stroke-width="1.5">
    <line x1="24" y1="24" x2="24" y2="12"/>
    <line x1="24" y1="24" x2="34" y2="17"/>
    <line x1="24" y1="24" x2="36" y2="27"/>
    <line x1="24" y1="24" x2="30" y2="35"/>
    <line x1="24" y1="24" x2="17" y2="34"/>
    <line x1="24" y1="24" x2="12" y2="22"/>
    <line x1="24" y1="12" x2="18" y2="6"/>
    <line x1="24" y1="12" x2="30" y2="6"/>
    <line x1="34" y1="17" x2="42" y2="12"/>
    <line x1="36" y1="27" x2="43" y2="30"/>
    <line x1="30" y1="35" x2="35" y2="42"/>
    <line x1="17" y1="34" x2="12" y2="42"/>
    <line x1="12" y1="22" x2="5" y2="18"/>
  </g>
  <g fill="rgba(255,255,255,0.5)">
    <circle cx="18" cy="6" r="2.5"/>
    <circle cx="30" cy="6" r="2.5"/>
    <circle cx="42" cy="12" r="2.5"/>
    <circle cx="43" cy="30" r="2.5"/>
    <circle cx="35" cy="42" r="2.5"/>
    <circle cx="12" cy="42" r="2.5"/>
    <circle cx="5" cy="18" r="2.5"/>
  </g>
  <g fill="rgba(255,255,255,0.8)">
    <circle cx="24" cy="12" r="3.5"/>
    <circle cx="34" cy="17" r="3.5"/>
    <circle cx="36" cy="27" r="3.5"/>
    <circle cx="30" cy="35" r="3.5"/>
    <circle cx="17" cy="34" r="3.5"/>
    <circle cx="12" cy="22" r="3.5"/>
  </g>
  <circle cx="24" cy="24" r="5" fill="rgba(255,255,255,0.95)"/>
</svg>
