<?xml version="1.0" encoding="UTF-8"?>
<svg viewBox="0 0 800 400" xmlns="http://www.w3.org/2000/svg" role="img" aria-labelledby="hero-zaps-title hero-zaps-desc" class="w-full h-auto"><title id="hero-zaps-title">Bitcoin zaps in chat</title><desc id="hero-zaps-desc">A chat message with a glowing lightning bolt flowing into it, orbited by sat particles representing a Lightning zap sent over Nostr Wallet Connect.</desc><defs><linearGradient id="sky-zaps" x1="0" y1="0" x2="0" y2="1"><stop offset="0%" stop-color="#0a0a0a"></stop><stop offset="100%" stop-color="#20180a"></stop></linearGradient><radialGradient id="bolt-glow" cx="0.5" cy="0.5" r="0.6"><stop offset="0%" stop-color="#f7b32b" stop-opacity="0.6"></stop><stop offset="100%" stop-color="#f7b32b" stop-opacity="0"></stop></radialGradient><radialGradient id="bubble-glow" cx="0.5" cy="0.5" r="0.6"><stop offset="0%" stop-color="#b4f953" stop-opacity="0.35"></stop><stop offset="100%" stop-color="#b4f953" stop-opacity="0"></stop></radialGradient><linearGradient id="bolt-fill" x1="0" y1="0" x2="0" y2="1"><stop offset="0%" stop-color="#fde68a"></stop><stop offset="60%" stop-color="#f7b32b"></stop><stop offset="100%" stop-color="#b45309"></stop></linearGradient></defs><rect width="800" height="400" fill="url(#sky-zaps)"></rect><g opacity="0.1" stroke="#f7b32b" stroke-width="0.5"><line x1="0" y1="40" x2="800" y2="40"></line><line x1="0" y1="80" x2="800" y2="80"></line><line x1="0" y1="120" x2="800" y2="120"></line><line x1="0" y1="160" x2="800" y2="160"></line><line x1="0" y1="200" x2="800" y2="200"></line><line x1="0" y1="240" x2="800" y2="240"></line><line x1="0" y1="280" x2="800" y2="280"></line><line x1="0" y1="320" x2="800" y2="320"></line><line x1="0" y1="360" x2="800" y2="360"></line><line x1="0" y1="400" x2="800" y2="400"></line></g><g stroke="#f7b32b" stroke-width="2" fill="none" stroke-linecap="round" opacity="0.9"><line x1="120" y1="200" x2="330" y2="200" stroke-dasharray="4 12" ></line><line x1="470" y1="200" x2="680" y2="200" stroke-dasharray="4 12"  style="animation-delay:0.6s"></line></g><g><rect x="40" y="160" width="90" height="80" rx="10" fill="#171717" stroke="#f7b32b" stroke-width="1.6"></rect><rect x="48" y="174" width="74" height="16" rx="3" fill="#2b1f08"></rect><rect x="48" y="198" width="50" height="8" rx="2" fill="#f7b32b" opacity="0.7"></rect><rect x="48" y="212" width="34" height="8" rx="2" fill="#f7b32b" opacity="0.4"></rect><text x="85" y="258" text-anchor="middle" font-size="11" font-weight="600" fill="#a3a3a3" font-family="monospace">NWC wallet</text></g><g style="transform-origin:400px 200px;transform-box:fill-box"><circle cx="400" cy="200" r="90" fill="url(#bolt-glow)" ></circle><polygon points="405,120 355,215 395,215 380,290 445,185 405,185 420,120" fill="url(#bolt-fill)" stroke="#fde68a" stroke-width="1.5"></polygon></g><g><circle cx="700" cy="200" r="70" fill="url(#bubble-glow)"  style="transform-origin:700px 200px;transform-box:fill-box;animation-delay:0.8s"></circle><path d="M625 160 h140 a14 14 0 0 1 14 14 v50 a14 14 0 0 1 -14 14 h-90 l-22 20 v-20 h-28 a14 14 0 0 1 -14 -14 v-50 a14 14 0 0 1 14 -14 z" fill="#171717" stroke="#b4f953" stroke-width="1.6"></path><rect x="640" y="178" width="100" height="7" rx="2" fill="#b4f953" opacity="0.7"></rect><rect x="640" y="192" width="70" height="7" rx="2" fill="#b4f953" opacity="0.45"></rect><rect x="640" y="206" width="50" height="7" rx="2" fill="#b4f953" opacity="0.3"></rect><g><circle cx="770" cy="160" r="18" fill="#0a0a0a" stroke="#f7b32b" stroke-width="1.8"></circle><polygon points="772,148 762,164 770,164 767,174 778,158 770,158 774,148" fill="#f7b32b"></polygon></g></g><g  style="--particle-delay:0s;--particle-duration:6s;transform-origin:230px 110px"><circle cx="230" cy="110" r="3.5" fill="#f7b32b" opacity="0.85"></circle><text x="237" y="114" font-size="10" font-weight="700" fill="#f7b32b" font-family="monospace" opacity="0.75">+21</text></g><g  style="--particle-delay:1.2s;--particle-duration:7s;transform-origin:560px 90px"><circle cx="560" cy="90" r="3.5" fill="#f7b32b" opacity="0.85"></circle><text x="567" y="94" font-size="10" font-weight="700" fill="#f7b32b" font-family="monospace" opacity="0.75">+42</text></g><g  style="--particle-delay:0.4s;--particle-duration:5.5s;transform-origin:150px 260px"><circle cx="150" cy="260" r="3.5" fill="#f7b32b" opacity="0.85"></circle><text x="157" y="264" font-size="10" font-weight="700" fill="#f7b32b" font-family="monospace" opacity="0.75">+63</text></g><g  style="--particle-delay:2s;--particle-duration:6.5s;transform-origin:640px 280px"><circle cx="640" cy="280" r="3.5" fill="#f7b32b" opacity="0.85"></circle><text x="647" y="284" font-size="10" font-weight="700" fill="#f7b32b" font-family="monospace" opacity="0.75">+84</text></g><g  style="--particle-delay:1.5s;--particle-duration:5s;transform-origin:320px 320px"><circle cx="320" cy="320" r="3.5" fill="#f7b32b" opacity="0.85"></circle><text x="327" y="324" font-size="10" font-weight="700" fill="#f7b32b" font-family="monospace" opacity="0.75">+105</text></g><g  style="--particle-delay:0.8s;--particle-duration:6.2s;transform-origin:500px 330px"><circle cx="500" cy="330" r="3.5" fill="#f7b32b" opacity="0.85"></circle><text x="507" y="334" font-size="10" font-weight="700" fill="#f7b32b" font-family="monospace" opacity="0.75">+126</text></g><g  style="--particle-delay:2.6s;--particle-duration:7.5s;transform-origin:90px 180px"><circle cx="90" cy="180" r="3.5" fill="#f7b32b" opacity="0.85"></circle><text x="97" y="184" font-size="10" font-weight="700" fill="#f7b32b" font-family="monospace" opacity="0.75">+147</text></g><g  style="--particle-delay:0.2s;--particle-duration:6.8s;transform-origin:710px 170px"><circle cx="710" cy="170" r="3.5" fill="#f7b32b" opacity="0.85"></circle><text x="717" y="174" font-size="10" font-weight="700" fill="#f7b32b" font-family="monospace" opacity="0.75">+168</text></g><g><circle r="4" fill="#fde68a"><animateMotion dur="2.4s" repeatCount="indefinite" path="M120,200 L330,200"></animateMotion></circle><circle r="4" fill="#fde68a"><animateMotion dur="2.4s" begin="0.8s" repeatCount="indefinite" path="M120,200 L330,200"></animateMotion></circle><circle r="4" fill="#fde68a"><animateMotion dur="2.4s" repeatCount="indefinite" path="M470,200 L680,200"></animateMotion></circle><circle r="4" fill="#fde68a"><animateMotion dur="2.4s" begin="1.2s" repeatCount="indefinite" path="M470,200 L680,200"></animateMotion></circle></g><g font-size="11" font-weight="600"><circle cx="40" cy="24" r="6" fill="#f7b32b"></circle><text x="52" y="28" fill="#fafafa">Lightning (NIP-47)</text><circle cx="220" cy="24" r="6" fill="#b4f953"></circle><text x="232" y="28" fill="#fafafa">chat message</text></g></svg>