<?xml version="1.0" encoding="UTF-8"?>
<svg viewBox="0 0 800 400" xmlns="http://www.w3.org/2000/svg" role="img" aria-labelledby="hero-future-title hero-future-desc" class="w-full h-auto"><title id="hero-future-title">Future: Nostr relay-based groups</title><desc id="hero-future-desc">A mesh of Nostr relays exchanging encrypted group messages, with no central server.</desc><defs><linearGradient id="sky-future" x1="0" y1="0" x2="0" y2="1"><stop offset="0%" stop-color="#0a0a0a"></stop><stop offset="100%" stop-color="#1e2812"></stop></linearGradient><radialGradient id="node-glow" cx="0.5" cy="0.5" r="0.6"><stop offset="0%" stop-color="#b4f953" stop-opacity="0.35"></stop><stop offset="100%" stop-color="#b4f953" stop-opacity="0"></stop></radialGradient></defs><rect width="800" height="400" fill="url(#sky-future)"></rect><g opacity="0.15" stroke="#b4f953" stroke-width="0.5"><line x1="0" y1="40" x2="800" y2="40"></line><line x1="0" y1="80" x2="800" y2="80"></line><line x1="0" y1="120" x2="800" y2="120"></line><line x1="0" y1="160" x2="800" y2="160"></line><line x1="0" y1="200" x2="800" y2="200"></line><line x1="0" y1="240" x2="800" y2="240"></line><line x1="0" y1="280" x2="800" y2="280"></line><line x1="0" y1="320" x2="800" y2="320"></line><line x1="0" y1="360" x2="800" y2="360"></line><line x1="0" y1="400" x2="800" y2="400"></line></g><g stroke="#b4f953" stroke-width="1.5" stroke-opacity="0.6" fill="none" stroke-linecap="round"><line x1="160" y1="120" x2="400" y2="90" stroke-dasharray="4 10"  style="animation-delay:0.00s"></line><line x1="640" y1="120" x2="400" y2="90" stroke-dasharray="4 10"  style="animation-delay:0.25s"></line><line x1="160" y1="120" x2="240" y2="300" stroke-dasharray="4 10"  style="animation-delay:0.50s"></line><line x1="640" y1="120" x2="560" y2="300" stroke-dasharray="4 10"  style="animation-delay:0.75s"></line><line x1="240" y1="300" x2="400" y2="320" stroke-dasharray="4 10"  style="animation-delay:1.00s"></line><line x1="560" y1="300" x2="400" y2="320" stroke-dasharray="4 10"  style="animation-delay:1.25s"></line><line x1="400" y1="90" x2="400" y2="320" stroke-dasharray="4 10"  style="animation-delay:1.50s"></line><line x1="160" y1="120" x2="640" y2="120" stroke-dasharray="4 10"  style="animation-delay:1.75s"></line><line x1="240" y1="300" x2="560" y2="300" stroke-dasharray="4 10"  style="animation-delay:2.00s"></line></g><g><g><circle cx="160" cy="120" r="52" fill="url(#node-glow)"></circle><circle cx="160" cy="120" r="36" fill="#171717" stroke="#b4f953" stroke-width="1.8"></circle><circle cx="160" cy="120" r="24" fill="#2d3a1a" stroke="#b4f953" stroke-width="1" opacity="0.7"  style="transform-origin:160px 120px;animation-delay:0.00s"></circle><line x1="160" y1="88" x2="160" y2="70" stroke="#b4f953" stroke-width="1.5"></line><circle cx="160" cy="68" r="3" fill="#b4f953"></circle><text x="160" y="174" text-anchor="middle" font-size="11" font-weight="600" fill="#a3a3a3" font-family="monospace">relay.a</text></g><g><circle cx="640" cy="120" r="52" fill="url(#node-glow)"></circle><circle cx="640" cy="120" r="36" fill="#171717" stroke="#b4f953" stroke-width="1.8"></circle><circle cx="640" cy="120" r="24" fill="#2d3a1a" stroke="#b4f953" stroke-width="1" opacity="0.7"  style="transform-origin:640px 120px;animation-delay:0.50s"></circle><line x1="640" y1="88" x2="640" y2="70" stroke="#b4f953" stroke-width="1.5"></line><circle cx="640" cy="68" r="3" fill="#b4f953"></circle><text x="640" y="174" text-anchor="middle" font-size="11" font-weight="600" fill="#a3a3a3" font-family="monospace">relay.b</text></g><g><circle cx="400" cy="90" r="56" fill="url(#node-glow)"></circle><circle cx="400" cy="90" r="40" fill="#171717" stroke="#b4f953" stroke-width="1.8"></circle><circle cx="400" cy="90" r="28" fill="#2d3a1a" stroke="#b4f953" stroke-width="1" opacity="0.7"  style="transform-origin:400px 90px;animation-delay:1.00s"></circle><line x1="400" y1="54" x2="400" y2="36" stroke="#b4f953" stroke-width="1.5"></line><circle cx="400" cy="34" r="3" fill="#b4f953"></circle><text x="400" y="148" text-anchor="middle" font-size="11" font-weight="600" fill="#a3a3a3" font-family="monospace">relay.c</text></g><g><circle cx="240" cy="300" r="48" fill="url(#node-glow)"></circle><circle cx="240" cy="300" r="32" fill="#171717" stroke="#b4f953" stroke-width="1.8"></circle><circle cx="240" cy="300" r="20" fill="#2d3a1a" stroke="#b4f953" stroke-width="1" opacity="0.7"  style="transform-origin:240px 300px;animation-delay:1.50s"></circle><line x1="240" y1="272" x2="240" y2="254" stroke="#b4f953" stroke-width="1.5"></line><circle cx="240" cy="252" r="3" fill="#b4f953"></circle><text x="240" y="350" text-anchor="middle" font-size="11" font-weight="600" fill="#a3a3a3" font-family="monospace">relay.d</text></g><g><circle cx="560" cy="300" r="48" fill="url(#node-glow)"></circle><circle cx="560" cy="300" r="32" fill="#171717" stroke="#b4f953" stroke-width="1.8"></circle><circle cx="560" cy="300" r="20" fill="#2d3a1a" stroke="#b4f953" stroke-width="1" opacity="0.7"  style="transform-origin:560px 300px;animation-delay:2.00s"></circle><line x1="560" y1="272" x2="560" y2="254" stroke="#b4f953" stroke-width="1.5"></line><circle cx="560" cy="252" r="3" fill="#b4f953"></circle><text x="560" y="350" text-anchor="middle" font-size="11" font-weight="600" fill="#a3a3a3" font-family="monospace">relay.e</text></g><g><circle cx="400" cy="320" r="50" fill="url(#node-glow)"></circle><circle cx="400" cy="320" r="34" fill="#171717" stroke="#b4f953" stroke-width="1.8"></circle><circle cx="400" cy="320" r="22" fill="#2d3a1a" stroke="#b4f953" stroke-width="1" opacity="0.7"  style="transform-origin:400px 320px;animation-delay:2.50s"></circle><line x1="400" y1="290" x2="400" y2="272" stroke="#b4f953" stroke-width="1.5"></line><circle cx="400" cy="270" r="3" fill="#b4f953"></circle><text x="400" y="372" text-anchor="middle" font-size="11" font-weight="600" fill="#a3a3a3" font-family="monospace">relay.f</text></g></g><g><rect x="336" y="184" width="128" height="32" rx="16" fill="#0a0a0a" stroke="#b4f953" stroke-width="1.5"></rect><text x="400" y="204" text-anchor="middle" font-size="13" font-weight="700" fill="#b4f953" font-family="monospace">NIP-29 group</text></g><g  style="--particle-delay:0.00s;--particle-duration:5.0s;transform-origin:100px 160px"><rect x="100" y="160" width="14" height="10" rx="2" fill="#2d3a1a" stroke="#b4f953" stroke-width="1"></rect><rect x="102" y="163" width="6" height="1.5" fill="#b4f953" opacity="0.7"></rect><rect x="102" y="166" width="4" height="1.5" fill="#b4f953" opacity="0.5"></rect></g><g  style="--particle-delay:0.60s;--particle-duration:6.0s;transform-origin:190px 197px"><rect x="190" y="197" width="14" height="10" rx="2" fill="#2d3a1a" stroke="#b4f953" stroke-width="1"></rect><rect x="192" y="200" width="6" height="1.5" fill="#b4f953" opacity="0.7"></rect><rect x="192" y="203" width="4" height="1.5" fill="#b4f953" opacity="0.5"></rect></g><g  style="--particle-delay:1.20s;--particle-duration:7.0s;transform-origin:280px 234px"><rect x="280" y="234" width="14" height="10" rx="2" fill="#2d3a1a" stroke="#b4f953" stroke-width="1"></rect><rect x="282" y="237" width="6" height="1.5" fill="#b4f953" opacity="0.7"></rect><rect x="282" y="240" width="4" height="1.5" fill="#b4f953" opacity="0.5"></rect></g><g  style="--particle-delay:1.80s;--particle-duration:8.0s;transform-origin:370px 271px"><rect x="370" y="271" width="14" height="10" rx="2" fill="#2d3a1a" stroke="#b4f953" stroke-width="1"></rect><rect x="372" y="274" width="6" height="1.5" fill="#b4f953" opacity="0.7"></rect><rect x="372" y="277" width="4" height="1.5" fill="#b4f953" opacity="0.5"></rect></g><g  style="--particle-delay:2.40s;--particle-duration:5.0s;transform-origin:460px 188px"><rect x="460" y="188" width="14" height="10" rx="2" fill="#2d3a1a" stroke="#b4f953" stroke-width="1"></rect><rect x="462" y="191" width="6" height="1.5" fill="#b4f953" opacity="0.7"></rect><rect x="462" y="194" width="4" height="1.5" fill="#b4f953" opacity="0.5"></rect></g><g  style="--particle-delay:3.00s;--particle-duration:6.0s;transform-origin:550px 225px"><rect x="550" y="225" width="14" height="10" rx="2" fill="#2d3a1a" stroke="#b4f953" stroke-width="1"></rect><rect x="552" y="228" width="6" height="1.5" fill="#b4f953" opacity="0.7"></rect><rect x="552" y="231" width="4" height="1.5" fill="#b4f953" opacity="0.5"></rect></g><g  style="--particle-delay:3.60s;--particle-duration:7.0s;transform-origin:640px 262px"><rect x="640" y="262" width="14" height="10" rx="2" fill="#2d3a1a" stroke="#b4f953" stroke-width="1"></rect><rect x="642" y="265" width="6" height="1.5" fill="#b4f953" opacity="0.7"></rect><rect x="642" y="268" width="4" height="1.5" fill="#b4f953" opacity="0.5"></rect></g><g  style="--particle-delay:4.20s;--particle-duration:8.0s;transform-origin:130px 179px"><rect x="130" y="179" width="14" height="10" rx="2" fill="#2d3a1a" stroke="#b4f953" stroke-width="1"></rect><rect x="132" y="182" width="6" height="1.5" fill="#b4f953" opacity="0.7"></rect><rect x="132" y="185" width="4" height="1.5" fill="#b4f953" opacity="0.5"></rect></g></svg>