<?xml version="1.0" encoding="UTF-8"?>
<svg viewBox="0 0 800 400" xmlns="http://www.w3.org/2000/svg" role="img" aria-labelledby="hero-how-title hero-how-desc" class="w-full h-auto"><title id="hero-how-title">How Obelisk works</title><desc id="hero-how-desc">A browser client, Obelisk server, and Nostr relays connected with flowing data lines.</desc><defs><linearGradient id="sky-how" x1="0" y1="0" x2="0" y2="1"><stop offset="0%" stop-color="#0a0a0a"></stop><stop offset="100%" stop-color="#1e2812"></stop></linearGradient><linearGradient id="how-obelisk-body" x1="0" y1="0" x2="0" y2="1"><stop offset="0%" stop-color="#b4f953"></stop><stop offset="100%" stop-color="#8bc34a"></stop></linearGradient><marker id="arrow-green" viewBox="0 0 10 10" refX="9" refY="5" markerWidth="7" markerHeight="7" orient="auto-start-reverse"><path d="M 0 0 L 10 5 L 0 10 z" fill="#b4f953"></path></marker><marker id="arrow-olive" viewBox="0 0 10 10" refX="9" refY="5" markerWidth="7" markerHeight="7" orient="auto-start-reverse"><path d="M 0 0 L 10 5 L 0 10 z" fill="#8bc34a"></path></marker></defs><rect width="800" height="400" fill="url(#sky-how)"></rect><g opacity="0.15" stroke="#b4f953" stroke-width="0.5"><line x1="0" y1="50" x2="800" y2="50"></line><line x1="0" y1="100" x2="800" y2="100"></line><line x1="0" y1="150" x2="800" y2="150"></line><line x1="0" y1="200" x2="800" y2="200"></line><line x1="0" y1="250" x2="800" y2="250"></line><line x1="0" y1="300" x2="800" y2="300"></line><line x1="0" y1="350" x2="800" y2="350"></line><line x1="0" y1="400" x2="800" y2="400"></line></g><g><rect x="60" y="150" width="140" height="100" rx="12" fill="#171717" stroke="#b4f953" stroke-width="1.5"></rect><rect x="72" y="162" width="116" height="8" rx="2" fill="#2d3a1a"></rect><circle cx="82" cy="166" r="2" fill="#b4f953"></circle><rect x="72" y="180" width="100" height="4" rx="1" fill="#262626"></rect><rect x="72" y="190" width="80" height="4" rx="1" fill="#262626"></rect><rect x="72" y="200" width="92" height="4" rx="1" fill="#262626"></rect><rect x="72" y="220" width="60" height="18" rx="9" fill="#b4f953"></rect><text x="102" y="232" text-anchor="middle" font-size="10" font-weight="700" fill="#0a0a0a">Sign</text><text x="130" y="275" text-anchor="middle" font-size="12" font-weight="600" fill="#a3a3a3">Client</text></g><g><g transform="translate(299.98 103.59) scale(0.391)"><path d="M 256,16 L 220,72 L 196,460 L 200,464 L 256,464 L 256,72 Z" fill="#8bc34a" opacity="0.85"></path><path d="M 256,16 L 292,72 L 316,460 L 312,464 L 256,464 L 256,72 Z" fill="url(#how-obelisk-body)"></path></g><rect x="372" y="290" width="56" height="8" fill="#8bc34a"></rect><rect x="362" y="298" width="76" height="6" fill="#2d3a1a"></rect><text x="400" y="330" text-anchor="middle" font-size="12" font-weight="600" fill="#a3a3a3">Obelisk server</text><text x="400" y="345" text-anchor="middle" font-size="10" fill="#a3a3a3">Channels · Messages · Realtime</text></g><g><g><circle cx="640" cy="120" r="22" fill="#171717" stroke="#b4f953" stroke-width="1.5"></circle><circle cx="640" cy="120" r="14" fill="#b4f953" opacity="0.5"  style="transform-origin:640px 120px;animation-delay:0s"></circle></g><g><circle cx="720" cy="170" r="20" fill="#171717" stroke="#b4f953" stroke-width="1.5"></circle><circle cx="720" cy="170" r="12" fill="#b4f953" opacity="0.5"  style="transform-origin:720px 170px;animation-delay:0.4s"></circle></g><g><circle cx="680" cy="230" r="24" fill="#171717" stroke="#b4f953" stroke-width="1.5"></circle><circle cx="680" cy="230" r="16" fill="#b4f953" opacity="0.5"  style="transform-origin:680px 230px;animation-delay:0.8s"></circle></g><g><circle cx="600" cy="210" r="18" fill="#171717" stroke="#b4f953" stroke-width="1.5"></circle><circle cx="600" cy="210" r="10" fill="#b4f953" opacity="0.5"  style="transform-origin:600px 210px;animation-delay:1.2000000000000002s"></circle></g><g><circle cx="740" cy="250" r="16" fill="#171717" stroke="#b4f953" stroke-width="1.5"></circle><circle cx="740" cy="250" r="8" fill="#b4f953" opacity="0.5"  style="transform-origin:740px 250px;animation-delay:1.6s"></circle></g><text x="670" y="310" text-anchor="middle" font-size="12" font-weight="600" fill="#a3a3a3">Nostr relays</text><text x="670" y="325" text-anchor="middle" font-size="10" fill="#a3a3a3">Identity · Profiles</text></g><g stroke="#b4f953" stroke-width="2" fill="none" stroke-linecap="round"><line x1="210" y1="200" x2="372" y2="200" stroke-dasharray="6 6"  marker-start="url(#arrow-green)" marker-end="url(#arrow-green)"></line></g><g stroke="#8bc34a" stroke-width="1.5" fill="none" stroke-linecap="round" opacity="0.75"><path d="M 180 168 Q 400 60 598 118" stroke-dasharray="5 7"  style="animation-duration:3s" marker-start="url(#arrow-olive)" marker-end="url(#arrow-olive)"></path></g><g stroke="#b4f953" stroke-width="1.5" fill="none" stroke-linecap="round" opacity="0.7"><line x1="428" y1="220" x2="578" y2="212" stroke-dasharray="4 8"  marker-end="url(#arrow-green)"></line></g><text x="291" y="192" font-size="10" fill="#b4f953" font-weight="600" text-anchor="middle">session + messages</text><text x="389" y="80" font-size="10" fill="#8bc34a" font-weight="600" text-anchor="middle">sign kind 0 / auth challenge</text><text x="503" y="228" font-size="9" fill="#b4f953" font-weight="600" text-anchor="middle" opacity="0.8">profile fetch</text></svg>