<?xml version="1.0" encoding="UTF-8"?>
<svg viewBox="0 0 800 400" xmlns="http://www.w3.org/2000/svg" role="img" aria-labelledby="hero-bots-title hero-bots-desc" class="w-full h-auto"><title id="hero-bots-title">Obelisk Bots and the zap bot</title><desc id="hero-bots-desc">A stylish zap bot with black sunglasses listening for Nostr zap receipts and posting signed announcements into NIP-29 Obelisk groups.</desc><defs><linearGradient id="sky-bots" x1="0" y1="0" x2="0" y2="1"><stop offset="0%" stop-color="#0a0a0a"></stop><stop offset="100%" stop-color="#18230d"></stop></linearGradient><linearGradient id="bot-face" x1="0" y1="0" x2="0" y2="1"><stop offset="0%" stop-color="#263315"></stop><stop offset="100%" stop-color="#11180b"></stop></linearGradient><linearGradient id="bolt-bots" x1="0" y1="0" x2="0" y2="1"><stop offset="0%" stop-color="#fde68a"></stop><stop offset="62%" stop-color="#f7b32b"></stop><stop offset="100%" stop-color="#b45309"></stop></linearGradient><radialGradient id="bot-glow" cx="0.5" cy="0.5" r="0.58"><stop offset="0%" stop-color="#b4f953" stop-opacity="0.42"></stop><stop offset="100%" stop-color="#b4f953" stop-opacity="0"></stop></radialGradient><radialGradient id="zap-glow-bots" cx="0.5" cy="0.5" r="0.56"><stop offset="0%" stop-color="#f7b32b" stop-opacity="0.38"></stop><stop offset="100%" stop-color="#f7b32b" stop-opacity="0"></stop></radialGradient></defs><rect width="800" height="400" fill="url(#sky-bots)"></rect><g opacity="0.1" stroke="#b4f953" stroke-width="0.5"><line x1="0" y1="40" x2="800" y2="40"></line><line x1="0" y1="80" x2="800" y2="80"></line><line x1="0" y1="120" x2="800" y2="120"></line><line x1="0" y1="160" x2="800" y2="160"></line><line x1="0" y1="200" x2="800" y2="200"></line><line x1="0" y1="240" x2="800" y2="240"></line><line x1="0" y1="280" x2="800" y2="280"></line><line x1="0" y1="320" x2="800" y2="320"></line><line x1="0" y1="360" x2="800" y2="360"></line><line x1="0" y1="400" x2="800" y2="400"></line></g><g opacity="0.08" stroke="#b4f953" stroke-width="0.5"><line x1="80" y1="0" x2="80" y2="400"></line><line x1="160" y1="0" x2="160" y2="400"></line><line x1="240" y1="0" x2="240" y2="400"></line><line x1="320" y1="0" x2="320" y2="400"></line><line x1="400" y1="0" x2="400" y2="400"></line><line x1="480" y1="0" x2="480" y2="400"></line><line x1="560" y1="0" x2="560" y2="400"></line><line x1="640" y1="0" x2="640" y2="400"></line><line x1="720" y1="0" x2="720" y2="400"></line><line x1="800" y1="0" x2="800" y2="400"></line></g><ellipse cx="400" cy="206" rx="176" ry="130" fill="url(#bot-glow)"  style="transform-origin:400px 206px;transform-box:fill-box"></ellipse><ellipse cx="400" cy="206" rx="118" ry="92" fill="url(#zap-glow-bots)"  style="transform-origin:400px 206px;transform-box:fill-box;animation-delay:0.7s"></ellipse><g stroke="#b4f953" stroke-width="1.8" fill="none" stroke-linecap="round" opacity="0.86"><path d="M178 135 C250 130 285 154 320 180" stroke-dasharray="4 10" ></path><path d="M622 135 C548 128 516 154 480 180" stroke-dasharray="4 10"  style="animation-delay:0.5s"></path><path d="M178 265 C256 270 288 248 320 226" stroke-dasharray="4 10"  style="animation-delay:1s"></path><path d="M622 265 C544 270 512 248 480 226" stroke-dasharray="4 10"  style="animation-delay:1.5s"></path></g><g><rect x="44" y="78" width="156" height="86" rx="16" fill="#171717" stroke="#b4f953" stroke-width="1.6"></rect><text x="122" y="110" text-anchor="middle" font-size="13" font-weight="800" fill="#fafafa" font-family="monospace">zap receipt</text><text x="122" y="134" text-anchor="middle" font-size="12" font-weight="700" fill="#f7b32b" font-family="monospace">kind 9735</text><rect x="72" y="144" width="100" height="6" rx="3" fill="#b4f953" opacity="0.5"></rect></g><g><rect x="600" y="78" width="156" height="86" rx="16" fill="#171717" stroke="#f7b32b" stroke-width="1.6"></rect><text x="678" y="110" text-anchor="middle" font-size="13" font-weight="800" fill="#fafafa" font-family="monospace">reaction</text><text x="678" y="134" text-anchor="middle" font-size="12" font-weight="700" fill="#f7b32b" font-family="monospace">kind 7 zap</text><rect x="628" y="144" width="100" height="6" rx="3" fill="#f7b32b" opacity="0.5"></rect></g><g><rect x="44" y="238" width="156" height="86" rx="16" fill="#171717" stroke="#b4f953" stroke-width="1.6"></rect><text x="122" y="270" text-anchor="middle" font-size="13" font-weight="800" fill="#fafafa" font-family="monospace">groups</text><text x="122" y="294" text-anchor="middle" font-size="12" font-weight="700" fill="#b4f953" font-family="monospace">NIP-29 scan</text><rect x="72" y="304" width="100" height="6" rx="3" fill="#b4f953" opacity="0.5"></rect></g><g><rect x="600" y="238" width="156" height="86" rx="16" fill="#171717" stroke="#b4f953" stroke-width="1.6"></rect><text x="678" y="270" text-anchor="middle" font-size="13" font-weight="800" fill="#fafafa" font-family="monospace">announcement</text><text x="678" y="294" text-anchor="middle" font-size="12" font-weight="700" fill="#b4f953" font-family="monospace">kind 9 post</text><rect x="628" y="304" width="100" height="6" rx="3" fill="#b4f953" opacity="0.5"></rect></g><g><line x1="400" y1="110" x2="400" y2="78" stroke="#b4f953" stroke-width="3" stroke-linecap="round"></line><circle cx="400" cy="70" r="8" fill="#b4f953"  style="transform-origin:400px 70px"></circle><rect x="298" y="118" width="204" height="154" rx="32" fill="url(#bot-face)" stroke="#b4f953" stroke-width="3"></rect><rect x="330" y="152" width="140" height="46" rx="18" fill="#050505" stroke="#0a0a0a" stroke-width="4"></rect><path d="M330 175 L470 160" stroke="#171717" stroke-width="8" stroke-linecap="round" opacity="0.75"></path><rect x="360" y="158" width="30" height="14" rx="7" fill="#0a0a0a" stroke="#b4f953" stroke-width="1.4" opacity="0.88"></rect><rect x="410" y="158" width="30" height="14" rx="7" fill="#0a0a0a" stroke="#b4f953" stroke-width="1.4" opacity="0.88"></rect><rect x="388" y="174" width="24" height="4" rx="2" fill="#0a0a0a"></rect><rect x="362" y="218" width="76" height="12" rx="6" fill="#0a0a0a" stroke="#b4f953" stroke-width="1.5"></rect><rect x="338" y="282" width="124" height="28" rx="14" fill="#0a0a0a" stroke="#b4f953" stroke-width="1.5"></rect><text x="400" y="301" text-anchor="middle" font-size="13" font-weight="900" fill="#b4f953" font-family="monospace">ZAP BOT</text></g><g><circle cx="502" cy="124" r="30" fill="#0a0a0a" stroke="#f7b32b" stroke-width="2"></circle><polygon points="506,104 488,132 502,132 497,150 520,116 506,116" fill="url(#bolt-bots)"></polygon></g><g><path d="M282 214 h-28 a12 12 0 0 0 -12 12 v46 a12 12 0 0 0 12 12 h64" fill="none" stroke="#b4f953" stroke-width="1.7" stroke-linecap="round" stroke-dasharray="4 8" ></path><path d="M518 214 h30 a12 12 0 0 1 12 12 v46 a12 12 0 0 1 -12 12 h-64" fill="none" stroke="#b4f953" stroke-width="1.7" stroke-linecap="round" stroke-dasharray="4 8"  style="animation-delay:0.8s"></path></g><g  style="--particle-delay:0s;--particle-duration:5.4s;transform-origin:140px 98px"><rect x="140" y="98" width="48" height="20" rx="10" fill="#0a0a0a" stroke="#b4f953" stroke-width="1.2"></rect><text x="164" y="112" text-anchor="middle" font-size="9" font-weight="800" fill="#b4f953" font-family="monospace">9735</text></g><g  style="--particle-delay:0.8s;--particle-duration:5.9s;transform-origin:640px 86px"><rect x="640" y="86" width="56" height="20" rx="10" fill="#0a0a0a" stroke="#f7b32b" stroke-width="1.2"></rect><text x="668" y="100" text-anchor="middle" font-size="9" font-weight="800" fill="#f7b32b" font-family="monospace">kind 7</text></g><g  style="--particle-delay:1.6s;--particle-duration:6.2s;transform-origin:95px 285px"><rect x="95" y="285" width="48" height="20" rx="10" fill="#0a0a0a" stroke="#b4f953" stroke-width="1.2"></rect><text x="119" y="299" text-anchor="middle" font-size="9" font-weight="800" fill="#b4f953" font-family="monospace">NIP-29</text></g><g  style="--particle-delay:2.3s;--particle-duration:5.7s;transform-origin:675px 286px"><rect x="675" y="286" width="56" height="20" rx="10" fill="#0a0a0a" stroke="#b4f953" stroke-width="1.2"></rect><text x="703" y="300" text-anchor="middle" font-size="9" font-weight="800" fill="#b4f953" font-family="monospace">kind 9</text></g><g font-size="11" font-weight="700" font-family="monospace"><rect x="244" y="342" width="96" height="24" rx="12" fill="#0a0a0a" stroke="#b4f953" stroke-width="1.4"></rect><text x="292" y="358" text-anchor="middle" fill="#b4f953">own nsec</text><rect x="352" y="342" width="96" height="24" rx="12" fill="#0a0a0a" stroke="#b4f953" stroke-width="1.4"></rect><text x="400" y="358" text-anchor="middle" fill="#b4f953">NIP-42</text><rect x="460" y="342" width="96" height="24" rx="12" fill="#0a0a0a" stroke="#b4f953" stroke-width="1.4"></rect><text x="508" y="358" text-anchor="middle" fill="#b4f953">PM2</text></g></svg>