<?xml version="1.0" encoding="UTF-8"?>
<svg viewBox="0 0 800 360" xmlns="http://www.w3.org/2000/svg" role="img" aria-label="NIP-29 relay-based group" class="w-full h-auto"><rect width="800" height="360" fill="#0a0a0a"></rect><text x="400" y="34" text-anchor="middle" font-size="16" font-weight="700" fill="#fafafa">NIP-29 — the relay hosts the group</text><g><rect x="280" y="120" width="240" height="160" rx="14" fill="#171717" stroke="#b4f953" stroke-width="2"></rect><rect x="298" y="138" width="204" height="24" rx="6" fill="#2d3a1a"></rect><text x="400" y="155" text-anchor="middle" font-size="12" font-weight="700" fill="#b4f953" font-family="monospace">relay.group.host</text><g><text x="302" y="180" font-size="11" font-weight="600" fill="#a3a3a3" font-family="monospace">members</text><text x="498" y="180" text-anchor="end" font-size="11" fill="#fafafa" font-family="monospace">42</text></g><g><text x="302" y="200" font-size="11" font-weight="600" fill="#a3a3a3" font-family="monospace">roles</text><text x="498" y="200" text-anchor="end" font-size="11" fill="#fafafa" font-family="monospace">admin / mod / member</text></g><g><text x="302" y="220" font-size="11" font-weight="600" fill="#a3a3a3" font-family="monospace">events</text><text x="498" y="220" text-anchor="end" font-size="11" fill="#fafafa" font-family="monospace">kind 9 chat, kind 11 thread</text></g><g><text x="302" y="240" font-size="11" font-weight="600" fill="#a3a3a3" font-family="monospace">admin check</text><text x="498" y="240" text-anchor="end" font-size="11" fill="#fafafa" font-family="monospace">relay enforces</text></g><text x="400" y="270" text-anchor="middle" font-size="10" fill="#b4f953">no central Obelisk server needed</text></g><g><rect x="50" y="70" width="60" height="40" rx="8" fill="#171717" stroke="#b4f953" stroke-width="1.5"></rect><circle cx="80" cy="86" r="5" fill="#b4f953"></circle><rect x="70" y="94" width="20" height="8" rx="3" fill="#2d3a1a"></rect><text x="80" y="125" text-anchor="middle" font-size="10" font-weight="600" fill="#a3a3a3">alice</text><line x1="112" y1="90" x2="280" y2="200" stroke="#b4f953" stroke-width="1.5" stroke-dasharray="4 8" ></line></g><g><rect x="50" y="200" width="60" height="40" rx="8" fill="#171717" stroke="#b4f953" stroke-width="1.5"></rect><circle cx="80" cy="216" r="5" fill="#b4f953"></circle><rect x="70" y="224" width="20" height="8" rx="3" fill="#2d3a1a"></rect><text x="80" y="255" text-anchor="middle" font-size="10" font-weight="600" fill="#a3a3a3">bob</text><line x1="112" y1="220" x2="280" y2="200" stroke="#b4f953" stroke-width="1.5" stroke-dasharray="4 8" ></line></g><g><rect x="690" y="70" width="60" height="40" rx="8" fill="#171717" stroke="#b4f953" stroke-width="1.5"></rect><circle cx="720" cy="86" r="5" fill="#b4f953"></circle><rect x="710" y="94" width="20" height="8" rx="3" fill="#2d3a1a"></rect><text x="720" y="125" text-anchor="middle" font-size="10" font-weight="600" fill="#a3a3a3">carol</text><line x1="688" y1="90" x2="520" y2="200" stroke="#b4f953" stroke-width="1.5" stroke-dasharray="4 8" ></line></g><g><rect x="690" y="200" width="60" height="40" rx="8" fill="#171717" stroke="#b4f953" stroke-width="1.5"></rect><circle cx="720" cy="216" r="5" fill="#b4f953"></circle><rect x="710" y="224" width="20" height="8" rx="3" fill="#2d3a1a"></rect><text x="720" y="255" text-anchor="middle" font-size="10" font-weight="600" fill="#a3a3a3">dan</text><line x1="688" y1="220" x2="520" y2="200" stroke="#b4f953" stroke-width="1.5" stroke-dasharray="4 8" ></line></g><text x="400" y="330" text-anchor="middle" font-size="11" fill="#a3a3a3" font-family="monospace">move off Postgres → keep Discord UX, gain Nostr portability</text></svg>