<?xml version="1.0" encoding="UTF-8"?>
<svg viewBox="0 0 800 400" xmlns="http://www.w3.org/2000/svg" role="img" aria-labelledby="hero-swap-title hero-swap-desc" class="w-full h-auto"><title id="hero-swap-title">Swap anything, trust nothing</title><desc id="hero-swap-desc">The Obelisk ecosystem — one self-hostable relay at the top connected to a chat client, a voice SFU, and a bot runtime, every piece independently replaceable.</desc><defs><linearGradient id="sky-swap" x1="0" y1="0" x2="0" y2="1"><stop offset="0%" stop-color="#0a0a0a"></stop><stop offset="100%" stop-color="#1e2812"></stop></linearGradient><linearGradient id="relay-fill" x1="0" y1="0" x2="0" y2="1"><stop offset="0%" stop-color="#2d3a1a"></stop><stop offset="100%" stop-color="#1e2812"></stop></linearGradient><radialGradient id="relay-glow" cx="0.5" cy="0.5" r="0.5"><stop offset="0%" stop-color="#b4f953" stop-opacity="0.35"></stop><stop offset="100%" stop-color="#b4f953" stop-opacity="0"></stop></radialGradient><marker id="swap-arrow" viewBox="0 0 10 10" refX="5" refY="5" markerWidth="6" markerHeight="6" orient="auto"><circle cx="5" cy="5" r="3" fill="#b4f953"></circle></marker></defs><rect width="800" height="400" fill="url(#sky-swap)"></rect><g opacity="0.12" stroke="#b4f953" stroke-width="0.5"><line x1="0" y1="40" x2="800" y2="40"></line><line x1="0" y1="80" x2="800" y2="80"></line><line x1="0" y1="120" x2="800" y2="120"></line><line x1="0" y1="160" x2="800" y2="160"></line><line x1="0" y1="200" x2="800" y2="200"></line><line x1="0" y1="240" x2="800" y2="240"></line><line x1="0" y1="280" x2="800" y2="280"></line><line x1="0" y1="320" x2="800" y2="320"></line><line x1="0" y1="360" x2="800" y2="360"></line></g><ellipse cx="400" cy="100" rx="320" ry="80" fill="url(#relay-glow)"  style="transform-origin:400px 100px;transform-box:fill-box"></ellipse><g><rect x="80" y="50" width="640" height="120" rx="60" fill="url(#relay-fill)" stroke="#b4f953" stroke-width="2"></rect><text x="400" y="98" text-anchor="middle" font-size="28" font-weight="800" fill="#b4f953" font-family="monospace" letter-spacing="-0.5">obelisk-relay</text><text x="400" y="124" text-anchor="middle" font-size="13" font-weight="600" fill="#fafafa" opacity="0.85">Self-hostable Nostr relay · whitelist · admin UI</text><circle cx="210" cy="158" r="2.5" fill="#b4f953" opacity="0.7"  style="transform-origin:210px 158px;animation-delay:0.00s"></circle><circle cx="270" cy="158" r="2.5" fill="#b4f953" opacity="0.7"  style="transform-origin:270px 158px;animation-delay:0.18s"></circle><circle cx="330" cy="158" r="2.5" fill="#b4f953" opacity="0.7"  style="transform-origin:330px 158px;animation-delay:0.36s"></circle><circle cx="380" cy="158" r="2.5" fill="#b4f953" opacity="0.7"  style="transform-origin:380px 158px;animation-delay:0.54s"></circle><circle cx="420" cy="158" r="2.5" fill="#b4f953" opacity="0.7"  style="transform-origin:420px 158px;animation-delay:0.72s"></circle><circle cx="470" cy="158" r="2.5" fill="#b4f953" opacity="0.7"  style="transform-origin:470px 158px;animation-delay:0.90s"></circle><circle cx="530" cy="158" r="2.5" fill="#b4f953" opacity="0.7"  style="transform-origin:530px 158px;animation-delay:1.08s"></circle><circle cx="590" cy="158" r="2.5" fill="#b4f953" opacity="0.7"  style="transform-origin:590px 158px;animation-delay:1.26s"></circle></g><g stroke="#b4f953" stroke-width="1.4" fill="none" stroke-linecap="round" opacity="0.85"><line x1="180" y1="170" x2="180" y2="250" stroke-dasharray="4 8"  style="animation-delay:0.00s"></line><line x1="400" y1="170" x2="400" y2="250" stroke-dasharray="4 8"  style="animation-delay:0.30s"></line><line x1="620" y1="170" x2="620" y2="250" stroke-dasharray="4 8"  style="animation-delay:0.60s"></line></g><g><rect x="90" y="250" width="180" height="110" rx="14" fill="#171717" stroke="#b4f953" stroke-width="1.6"></rect><rect x="104" y="266" width="32" height="6" rx="3" fill="#b4f953" opacity="0.85"  style="transform-origin:120px 269px;animation-delay:0.00s"></rect><text x="180" y="296" text-anchor="middle" font-size="17" font-weight="800" fill="#fafafa" font-family="monospace">obelisk-dex</text><text x="180" y="320" text-anchor="middle" font-size="12" font-weight="600" fill="#a3a3a3">Web chat client</text><text x="180" y="342" text-anchor="middle" font-size="11" font-weight="600" fill="#b4f953" opacity="0.75" font-family="monospace">browser · NIP-07</text></g><g><rect x="310" y="250" width="180" height="110" rx="14" fill="#171717" stroke="#b4f953" stroke-width="1.6"></rect><rect x="324" y="266" width="32" height="6" rx="3" fill="#b4f953" opacity="0.85"  style="transform-origin:340px 269px;animation-delay:0.40s"></rect><text x="400" y="296" text-anchor="middle" font-size="17" font-weight="800" fill="#fafafa" font-family="monospace">obelisk-sfu</text><text x="400" y="320" text-anchor="middle" font-size="12" font-weight="600" fill="#a3a3a3">Voice mixing server</text><text x="400" y="342" text-anchor="middle" font-size="11" font-weight="600" fill="#b4f953" opacity="0.75" font-family="monospace">WebRTC · large calls</text></g><g><rect x="530" y="250" width="180" height="110" rx="14" fill="#171717" stroke="#b4f953" stroke-width="1.6"></rect><rect x="544" y="266" width="32" height="6" rx="3" fill="#b4f953" opacity="0.85"  style="transform-origin:560px 269px;animation-delay:0.80s"></rect><text x="620" y="296" text-anchor="middle" font-size="17" font-weight="800" fill="#fafafa" font-family="monospace">obelisk-bots</text><text x="620" y="320" text-anchor="middle" font-size="12" font-weight="600" fill="#a3a3a3">Bot runtime</text><text x="620" y="342" text-anchor="middle" font-size="11" font-weight="600" fill="#b4f953" opacity="0.75" font-family="monospace">mod · games · ops</text></g><g  style="--particle-delay:0.00s;--particle-duration:5.0s;transform-origin:80px 200px"><rect x="80" y="200" width="14" height="9" rx="2" fill="#2d3a1a" stroke="#b4f953" stroke-width="1"></rect><rect x="82" y="202.5" width="6" height="1.4" fill="#b4f953" opacity="0.7"></rect><rect x="82" y="205" width="4" height="1.4" fill="#b4f953" opacity="0.5"></rect></g><g  style="--particle-delay:0.50s;--particle-duration:6.0s;transform-origin:210px 223px"><rect x="210" y="223" width="14" height="9" rx="2" fill="#2d3a1a" stroke="#b4f953" stroke-width="1"></rect><rect x="212" y="225.5" width="6" height="1.4" fill="#b4f953" opacity="0.7"></rect><rect x="212" y="228" width="4" height="1.4" fill="#b4f953" opacity="0.5"></rect></g><g  style="--particle-delay:1.00s;--particle-duration:7.0s;transform-origin:340px 216px"><rect x="340" y="216" width="14" height="9" rx="2" fill="#2d3a1a" stroke="#b4f953" stroke-width="1"></rect><rect x="342" y="218.5" width="6" height="1.4" fill="#b4f953" opacity="0.7"></rect><rect x="342" y="221" width="4" height="1.4" fill="#b4f953" opacity="0.5"></rect></g><g  style="--particle-delay:1.50s;--particle-duration:5.0s;transform-origin:470px 209px"><rect x="470" y="209" width="14" height="9" rx="2" fill="#2d3a1a" stroke="#b4f953" stroke-width="1"></rect><rect x="472" y="211.5" width="6" height="1.4" fill="#b4f953" opacity="0.7"></rect><rect x="472" y="214" width="4" height="1.4" fill="#b4f953" opacity="0.5"></rect></g><g  style="--particle-delay:2.00s;--particle-duration:6.0s;transform-origin:600px 202px"><rect x="600" y="202" width="14" height="9" rx="2" fill="#2d3a1a" stroke="#b4f953" stroke-width="1"></rect><rect x="602" y="204.5" width="6" height="1.4" fill="#b4f953" opacity="0.7"></rect><rect x="602" y="207" width="4" height="1.4" fill="#b4f953" opacity="0.5"></rect></g><g  style="--particle-delay:2.50s;--particle-duration:7.0s;transform-origin:90px 225px"><rect x="90" y="225" width="14" height="9" rx="2" fill="#2d3a1a" stroke="#b4f953" stroke-width="1"></rect><rect x="92" y="227.5" width="6" height="1.4" fill="#b4f953" opacity="0.7"></rect><rect x="92" y="230" width="4" height="1.4" fill="#b4f953" opacity="0.5"></rect></g><text x="400" y="384" text-anchor="middle" font-size="11" font-weight="600" fill="#a3a3a3" font-family="monospace">four projects · one protocol · no central server</text></svg>