<?xml version="1.0" encoding="UTF-8"?>
<svg viewBox="0 0 800 400" xmlns="http://www.w3.org/2000/svg" role="img" aria-labelledby="hero-what-title hero-what-desc" class="w-full h-auto"><title id="hero-what-title">What is Obelisk</title><desc id="hero-what-desc">An obelisk monument surrounded by orbiting Nostr keys and floating chat bubbles.</desc><defs><linearGradient id="sky-what" x1="0" y1="0" x2="0" y2="1"><stop offset="0%" stop-color="#0a0a0a"></stop><stop offset="100%" stop-color="#1e2812"></stop></linearGradient><linearGradient id="obelisk-body" x1="0" y1="0" x2="0" y2="1"><stop offset="0%" stop-color="#b4f953"></stop><stop offset="100%" stop-color="#8bc34a"></stop></linearGradient><radialGradient id="glow-what" cx="0.5" cy="0.5" r="0.5"><stop offset="0%" stop-color="#b4f953" stop-opacity="0.4"></stop><stop offset="100%" stop-color="#b4f953" stop-opacity="0"></stop></radialGradient></defs><rect width="800" height="400" fill="url(#sky-what)"></rect><g opacity="0.25" stroke="#b4f953" stroke-width="0.5"><line x1="0" y1="280" x2="800" y2="280"></line><line x1="0" y1="292" x2="800" y2="292"></line><line x1="0" y1="304" x2="800" y2="304"></line><line x1="0" y1="316" x2="800" y2="316"></line><line x1="0" y1="328" x2="800" y2="328"></line><line x1="0" y1="340" x2="800" y2="340"></line><line x1="0" y1="352" x2="800" y2="352"></line><line x1="0" y1="364" x2="800" y2="364"></line><line x1="0" y1="376" x2="800" y2="376"></line><line x1="0" y1="388" x2="800" y2="388"></line><line x1="0" y1="400" x2="800" y2="400"></line><line x1="0" y1="412" x2="800" y2="412"></line><line x1="-80" y1="280" x2="240" y2="400"></line><line x1="-20" y1="280" x2="260" y2="400"></line><line x1="40" y1="280" x2="280" y2="400"></line><line x1="100" y1="280" x2="300" y2="400"></line><line x1="160" y1="280" x2="320" y2="400"></line><line x1="220" y1="280" x2="340" y2="400"></line><line x1="280" y1="280" x2="360" y2="400"></line><line x1="340" y1="280" x2="380" y2="400"></line><line x1="400" y1="280" x2="400" y2="400"></line><line x1="460" y1="280" x2="420" y2="400"></line><line x1="520" y1="280" x2="440" y2="400"></line><line x1="580" y1="280" x2="460" y2="400"></line><line x1="640" y1="280" x2="480" y2="400"></line><line x1="700" y1="280" x2="500" y2="400"></line><line x1="760" y1="280" x2="520" y2="400"></line><line x1="820" y1="280" x2="540" y2="400"></line></g><g style="transform-origin:400px 220px;transform-box:fill-box"><circle cx="400" cy="220" r="140" fill="url(#glow-what)" ></circle></g><g transform="translate(257.2 41.1) scale(0.558)"><path d="M 256,16 L 220,72 L 196,460 L 200,464 L 256,464 L 256,72 Z" fill="#8bc34a" opacity="0.85"></path><path d="M 256,16 L 292,72 L 316,460 L 312,464 L 256,464 L 256,72 Z" fill="url(#obelisk-body)"></path></g><rect x="370" y="300" width="60" height="10" fill="#8bc34a"></rect><rect x="358" y="310" width="84" height="8" fill="#2d3a1a"></rect><g style="transform-origin:400px 220px;transform-box:fill-box"><g  style="--orbit-radius:160px;--orbit-duration:22s"><circle cx="400" cy="220" r="10" fill="#b4f953"></circle><text x="400" y="224" text-anchor="middle" font-size="11" font-weight="700" fill="#0a0a0a">K</text></g><g  style="--orbit-radius:110px;--orbit-duration:18s"><rect x="392" y="212" width="16" height="16" rx="3" fill="#8bc34a"></rect><text x="400" y="224" text-anchor="middle" font-size="10" font-weight="700" fill="#0a0a0a">n</text></g><g  style="--orbit-radius:200px;--orbit-duration:28s"><circle cx="400" cy="220" r="7" fill="#2d3a1a" stroke="#b4f953" stroke-width="1.5"></circle></g></g><g opacity="0.7"><g  style="--float-delay:0s;--float-duration:14s;--bubble-opacity:0.35"><rect x="120" y="320" width="36" height="22" rx="11" fill="#2d3a1a" stroke="#b4f953" stroke-width="1"></rect><circle cx="131" cy="331" r="2" fill="#b4f953"></circle><circle cx="138" cy="331" r="2" fill="#b4f953"></circle><circle cx="145" cy="331" r="2" fill="#b4f953"></circle></g><g  style="--float-delay:3s;--float-duration:16s;--bubble-opacity:0.35"><rect x="200" y="340" width="36" height="22" rx="11" fill="#2d3a1a" stroke="#b4f953" stroke-width="1"></rect><circle cx="211" cy="351" r="2" fill="#b4f953"></circle><circle cx="218" cy="351" r="2" fill="#b4f953"></circle><circle cx="225" cy="351" r="2" fill="#b4f953"></circle></g><g  style="--float-delay:1s;--float-duration:18s;--bubble-opacity:0.35"><rect x="620" y="310" width="36" height="22" rx="11" fill="#2d3a1a" stroke="#b4f953" stroke-width="1"></rect><circle cx="631" cy="321" r="2" fill="#b4f953"></circle><circle cx="638" cy="321" r="2" fill="#b4f953"></circle><circle cx="645" cy="321" r="2" fill="#b4f953"></circle></g><g  style="--float-delay:5s;--float-duration:20s;--bubble-opacity:0.35"><rect x="700" y="330" width="36" height="22" rx="11" fill="#2d3a1a" stroke="#b4f953" stroke-width="1"></rect><circle cx="711" cy="341" r="2" fill="#b4f953"></circle><circle cx="718" cy="341" r="2" fill="#b4f953"></circle><circle cx="725" cy="341" r="2" fill="#b4f953"></circle></g><g  style="--float-delay:7s;--float-duration:15s;--bubble-opacity:0.35"><rect x="560" y="350" width="36" height="22" rx="11" fill="#2d3a1a" stroke="#b4f953" stroke-width="1"></rect><circle cx="571" cy="361" r="2" fill="#b4f953"></circle><circle cx="578" cy="361" r="2" fill="#b4f953"></circle><circle cx="585" cy="361" r="2" fill="#b4f953"></circle></g></g><circle cx="120" cy="80" r="1.5" fill="#b4f953"  style="--particle-delay:0.00s;--particle-duration:4.0s"></circle><circle cx="163" cy="137" r="1.5" fill="#b4f953"  style="--particle-delay:0.40s;--particle-duration:5.0s"></circle><circle cx="206" cy="194" r="1.5" fill="#b4f953"  style="--particle-delay:0.80s;--particle-duration:6.0s"></circle><circle cx="249" cy="251" r="1.5" fill="#b4f953"  style="--particle-delay:1.20s;--particle-duration:7.0s"></circle><circle cx="292" cy="128" r="1.5" fill="#b4f953"  style="--particle-delay:1.60s;--particle-duration:8.0s"></circle><circle cx="335" cy="185" r="1.5" fill="#b4f953"  style="--particle-delay:2.00s;--particle-duration:4.0s"></circle><circle cx="378" cy="242" r="1.5" fill="#b4f953"  style="--particle-delay:2.40s;--particle-duration:5.0s"></circle><circle cx="421" cy="119" r="1.5" fill="#b4f953"  style="--particle-delay:2.80s;--particle-duration:6.0s"></circle><circle cx="464" cy="176" r="1.5" fill="#b4f953"  style="--particle-delay:3.20s;--particle-duration:7.0s"></circle><circle cx="507" cy="233" r="1.5" fill="#b4f953"  style="--particle-delay:3.60s;--particle-duration:8.0s"></circle><circle cx="550" cy="110" r="1.5" fill="#b4f953"  style="--particle-delay:4.00s;--particle-duration:4.0s"></circle><circle cx="593" cy="167" r="1.5" fill="#b4f953"  style="--particle-delay:4.40s;--particle-duration:5.0s"></circle><circle cx="636" cy="224" r="1.5" fill="#b4f953"  style="--particle-delay:4.80s;--particle-duration:6.0s"></circle><circle cx="679" cy="101" r="1.5" fill="#b4f953"  style="--particle-delay:5.20s;--particle-duration:7.0s"></circle></svg>