<?xml version="1.0" encoding="UTF-8"?>
<svg viewBox="0 0 900 360" xmlns="http://www.w3.org/2000/svg" role="img" aria-label="Zap sequence diagram" class="w-full h-auto"><rect width="900" height="360" fill="#0a0a0a"></rect><g><rect x="20" y="12" width="140" height="32" rx="16" fill="#2d3a1a" stroke="#b4f953" stroke-width="1.5"></rect><text x="90" y="33" text-anchor="middle" font-size="12" font-weight="700" fill="#b4f953">Client</text></g><g><rect x="270" y="12" width="140" height="32" rx="16" fill="#2d3a1a" stroke="#b4f953" stroke-width="1.5"></rect><text x="340" y="33" text-anchor="middle" font-size="12" font-weight="700" fill="#b4f953">Obelisk server</text></g><g><rect x="520" y="12" width="140" height="32" rx="16" fill="#2d3a1a" stroke="#b4f953" stroke-width="1.5"></rect><text x="590" y="33" text-anchor="middle" font-size="12" font-weight="700" fill="#b4f953">Receiver wallet</text></g><g><rect x="740" y="12" width="140" height="32" rx="16" fill="#2d3a1a" stroke="#b4f953" stroke-width="1.5"></rect><text x="810" y="33" text-anchor="middle" font-size="12" font-weight="700" fill="#b4f953">Sender wallet</text></g><g stroke="#262626" stroke-width="1" stroke-dasharray="3 3"><line x1="90" y1="48" x2="90" y2="340"></line><line x1="340" y1="48" x2="340" y2="340"></line><line x1="590" y1="48" x2="590" y2="340"></line><line x1="810" y1="48" x2="810" y2="340"></line></g><g><line x1="90" y1="75" x2="340" y2="75" stroke="#b4f953" stroke-width="1.8" stroke-dasharray="6 6"  style="animation-delay:0s"></line><polygon points="332,70 340,75 332,80" fill="#b4f953"></polygon><text x="215" y="67" text-anchor="middle" font-size="11" font-weight="600" fill="#fafafa" font-family="monospace">1. POST /api/wallet/zap { amountSats }</text></g><g><line x1="340" y1="120" x2="590" y2="120" stroke="#b4f953" stroke-width="1.8" stroke-dasharray="6 6"  style="animation-delay:0.25s"></line><polygon points="582,115 590,120 582,125" fill="#b4f953"></polygon><text x="465" y="112" text-anchor="middle" font-size="11" font-weight="600" fill="#fafafa" font-family="monospace">2. NWC makeInvoice (o LNURL-pay)</text></g><g><line x1="590" y1="165" x2="340" y2="165" stroke="#b4f953" stroke-width="1.8" stroke-dasharray="6 6"  style="animation-delay:0.5s"></line><polygon points="348,160 340,165 348,170" fill="#b4f953"></polygon><text x="465" y="157" text-anchor="middle" font-size="11" font-weight="600" fill="#fafafa" font-family="monospace">3. BOLT11 invoice</text></g><g><line x1="340" y1="210" x2="810" y2="210" stroke="#b4f953" stroke-width="1.8" stroke-dasharray="6 6"  style="animation-delay:0.75s"></line><polygon points="802,205 810,210 802,215" fill="#b4f953"></polygon><text x="575" y="202" text-anchor="middle" font-size="11" font-weight="600" fill="#fafafa" font-family="monospace">4. NWC payInvoice</text></g><g><line x1="810" y1="255" x2="340" y2="255" stroke="#b4f953" stroke-width="1.8" stroke-dasharray="6 6"  style="animation-delay:1s"></line><polygon points="348,250 340,255 348,260" fill="#b4f953"></polygon><text x="575" y="247" text-anchor="middle" font-size="11" font-weight="600" fill="#fafafa" font-family="monospace">5. payment preimage (pagado por Lightning)</text></g><g><line x1="340" y1="300" x2="90" y2="300" stroke="#b4f953" stroke-width="1.8" stroke-dasharray="6 6"  style="animation-delay:1.25s"></line><polygon points="98,295 90,300 98,305" fill="#b4f953"></polygon><text x="215" y="292" text-anchor="middle" font-size="11" font-weight="600" fill="#fafafa" font-family="monospace">6. Socket.io new-message ⚡</text></g></svg>